<?xml version="1.0" encoding="UTF-8"?>
<svg version="1.1" xmlns="http://www.w3.org/2000/svg" width="160" height="160">
<path d="M0 0 C5.61993769 0 5.61993769 0 8.73046875 1.73046875 C9.43888916 2.11525391 10.14730957 2.50003906 10.87719727 2.89648438 C11.63959717 3.32251953 12.40199707 3.74855469 13.1875 4.1875 C14.86559316 5.10059246 16.54538342 6.0105706 18.2265625 6.91796875 C19.59603027 7.65732666 19.59603027 7.65732666 20.99316406 8.41162109 C27.7672775 11.99008667 34.664834 15.33228029 41.54174805 18.70776367 C42.61207275 19.23732666 43.68239746 19.76688965 44.78515625 20.3125 C45.74301025 20.78300781 46.70086426 21.25351562 47.68774414 21.73828125 C50 23 50 23 52 25 C53.59600477 34.33512226 53.12159287 44.1966823 53.17523193 53.63659668 C53.18339422 55.00111944 53.1944908 56.36562787 53.20855713 57.73010254 C53.22648759 59.67807245 53.22873252 61.62616709 53.23046875 63.57421875 C53.23457764 64.71463623 53.23868652 65.85505371 53.24291992 67.0300293 C53.00345933 69.95770582 52.63345338 71.58628094 51 74 C48.39453125 75.578125 48.39453125 75.578125 44.8125 77.25 C43.3850589 77.92881219 41.95945302 78.61148986 40.53515625 79.296875 C39.69484863 79.70099609 38.85454102 80.10511719 37.98876953 80.52148438 C34.3569454 82.31811294 30.77024399 84.19332807 27.18359375 86.078125 C25.78475318 86.81087972 24.38590875 87.54362705 22.98706055 88.27636719 C20.86935062 89.38625516 18.75299623 90.4984125 16.64028931 91.61779785 C14.6338086 92.67975892 12.62220542 93.73138609 10.609375 94.78125 C10.00262436 95.10587219 9.39587372 95.43049438 8.77073669 95.76495361 C5.48145719 97.46838714 3.81413143 98 0 98 C0 91.73 0 85.46 0 79 C8.61045 74.40776 17.22516351 69.8338543 25.9375 65.4375 C26.95650391 64.91833008 26.95650391 64.91833008 27.99609375 64.38867188 C32.76366788 62 32.76366788 62 35 62 C35.29146369 57.95986485 35.46829657 53.92242571 35.625 49.875 C35.70878906 48.73289063 35.79257813 47.59078125 35.87890625 46.4140625 C35.9775416 43.02100635 35.92003824 40.27162429 35 37 C32.05727506 34.03705014 28.80722897 32.61562774 25 31 C22.36 29.68 19.72 28.36 17 27 C17 39.54 17 52.08 17 65 C6 71 6 71 0 72 C0 48.24 0 24.48 0 0 Z " fill="#1FAFCF" transform="translate(40,41)"/>
<path d="M0 0 C4.32431656 0.55450797 7.66890647 1.59050265 11.55200195 3.55688477 C12.61784012 4.09156876 13.68367828 4.62625275 14.78181458 5.17713928 C15.92244858 5.75934738 17.06308258 6.34155548 18.23828125 6.94140625 C19.44412827 7.54934452 20.65036886 8.15650269 21.85697937 8.76292419 C25.03503437 10.36239937 28.20835521 11.97104044 31.3805542 13.58209229 C36.40539719 16.13205763 41.43722754 18.66823675 46.4687767 21.20493698 C47.68743787 21.81956726 48.90587621 22.43463955 50.12408829 23.05015945 C58.13401735 27.09658622 66.17229908 31.05898027 74.32844543 34.8028717 C78.90953969 36.90953969 78.90953969 36.90953969 80 38 C80.19783081 41.04231704 80.33324508 44.06322549 80.421875 47.109375 C80.44977112 48.02833557 80.47766724 48.94729614 80.50640869 49.894104 C80.56292173 51.84436199 80.61652494 53.79470609 80.66748047 55.74511719 C80.74928493 58.72396145 80.85289029 61.70155211 80.95703125 64.6796875 C81.00916908 66.57287979 81.05999263 68.46610883 81.109375 70.359375 C81.14359558 71.24913025 81.17781616 72.1388855 81.21307373 73.05560303 C81.31123491 77.88455246 81.20249053 81.10025837 78 85 C75.66015625 86.58203125 75.66015625 86.58203125 73.0625 87.8125 C71.78052734 88.44091797 71.78052734 88.44091797 70.47265625 89.08203125 C68 90 68 90 64 90 C64 76.47 64 62.94 64 49 C62.35 48.34 60.7 47.68 59 47 C56.10406259 45.71135357 53.24063008 44.35456062 50.375 43 C49.54178223 42.60627197 48.70856445 42.21254395 47.85009766 41.80688477 C41.14253728 38.60678014 34.57220308 35.18387199 28.02075195 31.67749023 C21.92066266 28.43151872 15.72678916 25.4425779 9.42919922 22.59936523 C7.60411683 21.76572714 5.80072155 20.88503113 4 20 C3.18917969 19.61070313 2.37835938 19.22140625 1.54296875 18.8203125 C-1.06766488 15.74042574 -0.41557289 12.19391058 -0.25 8.3125 C-0.23195312 7.51521484 -0.21390625 6.71792969 -0.1953125 5.89648438 C-0.14822247 3.93047551 -0.07647899 1.96508506 0 0 Z " fill="#17C9F4" transform="translate(40,16)"/>
<path d="M0 0 C1.87425348 -0.08188486 3.74957054 -0.13958757 5.625 -0.1875 C6.66914062 -0.22230469 7.71328125 -0.25710937 8.7890625 -0.29296875 C12.46086687 0.0420499 14.76817993 1.28938461 18 3 C18.0505939 9.51445205 18.08568856 16.02885368 18.10986328 22.54345703 C18.11993825 24.76092421 18.13359859 26.97837805 18.15087891 29.19580078 C18.17506163 32.37796312 18.18646797 35.55995024 18.1953125 38.7421875 C18.20563507 39.73805878 18.21595764 40.73393005 18.22659302 41.75997925 C18.22681961 43.14118454 18.22681961 43.14118454 18.22705078 44.55029297 C18.231492 45.3630368 18.23593323 46.17578064 18.24050903 47.01315308 C18 49 18 49 16 51 C12.375 51.125 12.375 51.125 9 51 C9 51.66 9 52.32 9 53 C8.01 53 7.02 53 6 53 C6 53.66 6 54.32 6 55 C-1.33960785 59.64226647 -7.26991353 61.96622791 -16 62 C-16.33 62.99 -16.66 63.98 -17 65 C-19.27208411 66.51472274 -21.56019185 67.78009593 -24 69 C-24.66 68.67 -25.32 68.34 -26 68 C-26.495 68.99 -26.495 68.99 -27 70 C-28.23184766 67.53630468 -28.16732342 65.8105499 -28.1875 63.0625 C-28.20167969 62.18722656 -28.21585938 61.31195313 -28.23046875 60.41015625 C-28 58 -28 58 -26 55 C-24.0546875 54.48828125 -24.0546875 54.48828125 -21.875 54.3125 C-19.956875 54.1578125 -19.956875 54.1578125 -18 54 C-18 53.01 -18 52.02 -18 51 C-14.68820268 48.51615201 -11.05277014 47.2068361 -7.1953125 45.828125 C-4.01970906 44.63021054 -0.95908787 43.20048164 2.1171875 41.76953125 C4 41 4 41 6 41 C5.99476318 40.19780029 5.98952637 39.39560059 5.98413086 38.5690918 C5.96337103 34.94190247 5.95034298 31.31472563 5.9375 27.6875 C5.92912109 26.42486328 5.92074219 25.16222656 5.91210938 23.86132812 C5.90888672 22.65283203 5.90566406 21.44433594 5.90234375 20.19921875 C5.89710693 19.08377686 5.89187012 17.96833496 5.88647461 16.8190918 C6 14 6 14 7 11 C4.525 10.505 4.525 10.505 2 10 C1.67 9.01 1.34 8.02 1 7 C0.01 6.34 -0.98 5.68 -2 5 C-2 4.01 -2 3.02 -2 2 C-1.34 2 -0.68 2 0 2 C0 1.34 0 0.68 0 0 Z " fill="#15CAF5" transform="translate(71,64)"/>
<path d="M0 0 C3.3 1.65 6.6 3.3 10 5 C9.01 5.495 9.01 5.495 8 6 C10.85478326 7.90318884 12.41941308 8.4619099 15.6875 9.125 C16.89986328 9.37636719 16.89986328 9.37636719 18.13671875 9.6328125 C18.75160156 9.75398438 19.36648437 9.87515625 20 10 C20 10.66 20 11.32 20 12 C20.63808594 12.19335938 21.27617188 12.38671875 21.93359375 12.5859375 C22.75988281 12.84632812 23.58617188 13.10671875 24.4375 13.375 C25.26121094 13.63023438 26.08492187 13.88546875 26.93359375 14.1484375 C29 15 29 15 30 17 C27.03 17.33 24.06 17.66 21 18 C20.01 20.475 20.01 20.475 19 23 C17.02 23 15.04 23 13 23 C13 35.87 13 48.74 13 62 C9.04 63.98 9.04 63.98 5 66 C4.505 66.99 4.505 66.99 4 68 C2.68 68 1.36 68 0 68 C0 45.56 0 23.12 0 0 Z " fill="#15CAF6" transform="translate(42,43)"/>
<path d="M0 0 C1.03125 0.226875 2.0625 0.45375 3.125 0.6875 C3.90875 0.64625 4.6925 0.605 5.5 0.5625 C9.27023385 0.74203495 14.36597908 1.92847908 17.125 4.6875 C17.25104257 7.75491782 17.31370085 10.79856825 17.328125 13.8671875 C17.33382507 14.79089142 17.33952515 15.71459534 17.34539795 16.66629028 C17.35486345 18.62500863 17.36138806 20.58374302 17.36523438 22.54248047 C17.3749367 25.54292548 17.40594401 28.5426848 17.4375 31.54296875 C17.44403002 33.44270425 17.4492805 35.34244467 17.453125 37.2421875 C17.4654718 38.14226532 17.4778186 39.04234314 17.49053955 39.96969604 C17.48753845 40.80711334 17.48453735 41.64453064 17.48144531 42.50732422 C17.48509094 43.24377167 17.48873657 43.98021912 17.49249268 44.73898315 C17.02033242 47.24246763 16.11752862 48.14748078 14.125 49.6875 C13.465 49.6875 12.805 49.6875 12.125 49.6875 C12.125 50.3475 12.125 51.0075 12.125 51.6875 C9.815 52.3475 7.505 53.0075 5.125 53.6875 C5.125 40.1575 5.125 26.6275 5.125 12.6875 C4.465 12.6875 3.805 12.6875 3.125 12.6875 C2.465 11.6975 1.805 10.7075 1.125 9.6875 C-0.5929646 8.48267061 -0.5929646 8.48267061 -2.5 7.5 C-3.61375 6.901875 -4.7275 6.30375 -5.875 5.6875 C-5.875 2.6875 -5.875 2.6875 -4.75 0.9375 C-2.875 -0.3125 -2.875 -0.3125 0 0 Z " fill="#14CAF5" transform="translate(99.875,51.3125)"/>
<path d="M0 0 C5.3347157 0.5582842 9.3303841 2.40191041 14.0234375 4.81640625 C14.76961334 5.19232407 15.51578918 5.56824188 16.28457642 5.95555115 C18.65193456 7.15036788 21.01346331 8.35622494 23.375 9.5625 C24.98530417 10.37769018 26.59597764 11.19215131 28.20703125 12.00585938 C32.14234598 13.99549192 36.07247317 15.99504097 40 18 C37 19 37 19 34.765625 18.07421875 C33.93546875 17.61660156 33.1053125 17.15898438 32.25 16.6875 C29.37493753 15.10983207 26.86521906 13.96276418 23.69140625 13.0859375 C19.38955662 11.82041983 15.65584063 9.99338731 11.6875 7.9375 C10.97271484 7.57333984 10.25792969 7.20917969 9.52148438 6.83398438 C7.67847402 5.89424017 5.83898047 4.94760602 4 4 C3.34 3.67 2.68 3.34 2 3 C1.77577927 7.50419881 1.81988155 11.62879893 3 16 C7.13518723 19.79746777 11.4737736 21 17 21 C17.598125 21.639375 18.19625 22.27875 18.8125 22.9375 C21.72372984 25.68237385 24.09392482 25.69953268 28 26 C28.33 26.99 28.66 27.98 29 29 C29.66 29 30.32 29 31 29 C31 29.66 31 30.32 31 31 C34.63 31.66 38.26 32.32 42 33 C42.33 33.99 42.66 34.98 43 36 C43.886875 36.103125 44.77375 36.20625 45.6875 36.3125 C49.11823527 37.02453939 51.05924016 38.1620251 54 40 C55.03125 40.309375 56.0625 40.61875 57.125 40.9375 C60.32552113 42.12030129 61.34837605 43.06377965 63 46 C63 46.66 63 47.32 63 48 C63.66 48 64.32 48 65 48 C65 61.53 65 75.06 65 89 C66.32 88.34 67.64 87.68 69 87 C70.485 87.495 70.485 87.495 72 88 C68.91190305 89.76462683 67.76687864 90 64 90 C64 76.47 64 62.94 64 49 C62.35 48.34 60.7 47.68 59 47 C56.10406259 45.71135357 53.24063008 44.35456062 50.375 43 C49.54178223 42.60627197 48.70856445 42.21254395 47.85009766 41.80688477 C41.14253728 38.60678014 34.57220308 35.18387199 28.02075195 31.67749023 C21.92066266 28.43151872 15.72678916 25.4425779 9.42919922 22.59936523 C7.60411683 21.76572714 5.80072155 20.88503113 4 20 C3.18917969 19.61070313 2.37835938 19.22140625 1.54296875 18.8203125 C-1.06766488 15.74042574 -0.41557289 12.19391058 -0.25 8.3125 C-0.23195312 7.51521484 -0.21390625 6.71792969 -0.1953125 5.89648438 C-0.14822247 3.93047551 -0.07647899 1.96508506 0 0 Z " fill="#29A0B9" transform="translate(40,16)"/>
<path d="M0 0 C5.62041392 0 5.62041392 0 8.80078125 1.765625 C9.51967529 2.15572754 10.23856934 2.54583008 10.97924805 2.94775391 C11.74922119 3.37749512 12.51919434 3.80723633 13.3125 4.25 C14.99082288 5.16137166 16.67058667 6.07009339 18.3515625 6.9765625 C19.25165039 7.46286133 20.15173828 7.94916016 21.07910156 8.45019531 C26.39910095 11.27294323 31.79496739 13.94419371 37.1875 16.625 C38.25718018 17.15770508 39.32686035 17.69041016 40.42895508 18.23925781 C42.95177373 19.49458831 45.47540909 20.74823853 48 22 C45 23 45 23 43.01171875 22.109375 C42.24472656 21.66078125 41.47773437 21.2121875 40.6875 20.75 C34.42961363 17.42173155 27.92967944 16.22817085 21 15 C21.33 14.01 21.66 13.02 22 12 C21.38511719 11.93941406 20.77023438 11.87882812 20.13671875 11.81640625 C19.32847656 11.73261719 18.52023438 11.64882813 17.6875 11.5625 C16.88699219 11.48128906 16.08648437 11.40007813 15.26171875 11.31640625 C13 11 13 11 10 10 C10 9.01 10 8.02 10 7 C6.535 5.02 6.535 5.02 3 3 C2.67 25.11 2.34 47.22 2 70 C3.32 70.33 4.64 70.66 6 71 C3.03 71.495 3.03 71.495 0 72 C0 48.24 0 24.48 0 0 Z " fill="#2A8094" transform="translate(40,41)"/>
<path d="M0 0 C1.485 0.99 1.485 0.99 3 2 C3.2487793 4.15478516 3.2487793 4.15478516 3.07421875 6.7890625 C3.01943359 7.73007813 2.96464844 8.67109375 2.90820312 9.640625 C2.83537109 10.62546875 2.76253906 11.6103125 2.6875 12.625 C2.62626953 13.61757812 2.56503906 14.61015625 2.50195312 15.6328125 C2.34839342 18.08976785 2.18051265 20.54490157 2 23 C2.99 23 3.98 23 5 23 C5.185625 21.0509375 5.185625 21.0509375 5.375 19.0625 C5.5859375 16.84765625 5.5859375 16.84765625 6 15 C6.66 14.67 7.32 14.34 8 14 C8.25 20.625 8.25 20.625 6 24 C6.99 23.67 7.98 23.34 9 23 C9.04898438 22.37351562 9.09796875 21.74703125 9.1484375 21.1015625 C9.22320312 20.28429687 9.29796875 19.46703125 9.375 18.625 C9.44460937 17.81289062 9.51421875 17.00078125 9.5859375 16.1640625 C10 14 10 14 12 12 C12.08701039 15.60401481 12.14039388 19.20776012 12.1875 22.8125 C12.22520508 24.34874023 12.22520508 24.34874023 12.26367188 25.91601562 C12.27817383 27.39038086 12.27817383 27.39038086 12.29296875 28.89453125 C12.31653442 30.25348511 12.31653442 30.25348511 12.34057617 31.63989258 C12 34 12 34 10.60668945 35.8190918 C9 37 9 37 7 37 C7 37.66 7 38.32 7 39 C4.69 39.66 2.38 40.32 0 41 C0 27.47 0 13.94 0 0 Z " fill="#1FCCF6" transform="translate(105,64)"/>
<path d="M0 0 C5.31260063 1.60832354 10.19359488 3.86282553 15.1875 6.25 C15.97447266 6.61996094 16.76144531 6.98992188 17.57226562 7.37109375 C23.84357038 10.35161653 29.93160032 13.62762865 36 17 C36.21742022 22.88938445 36.41420635 28.77896481 36.59204102 34.66967773 C36.65540308 36.67279406 36.72436445 38.67574153 36.79907227 40.6784668 C36.90558839 43.56012105 36.99183932 46.44178586 37.07421875 49.32421875 C37.11157639 50.21711105 37.14893402 51.11000336 37.18742371 52.029953 C37.30311907 56.8326197 37.27969275 60.17314053 34 64 C30.8125 65.3125 30.8125 65.3125 28 66 C28 65.34 28 64.68 28 64 C28.66 64 29.32 64 30 64 C30.33 63.01 30.66 62.02 31 61 C31.66 61 32.32 61 33 61 C32.505 40.21 32.505 40.21 32 19 C29.69 18.01 27.38 17.02 25 16 C25 15.34 25 14.68 25 14 C24.46375 13.896875 23.9275 13.79375 23.375 13.6875 C21 13 21 13 18.125 11.4375 C14.77746524 9.89763401 12.6347123 9.74037769 9 10 C9.66 9.01 10.32 8.02 11 7 C7.37 5.02 3.74 3.04 0 1 C0 0.67 0 0.34 0 0 Z " fill="#1CA4C1" transform="translate(84,37)"/>
<path d="M0 0 C1.87425348 -0.08188486 3.74957054 -0.13958757 5.625 -0.1875 C6.66914062 -0.22230469 7.71328125 -0.25710937 8.7890625 -0.29296875 C12.46086687 0.0420499 14.76817993 1.28938461 18 3 C18.0505939 9.51445205 18.08568856 16.02885368 18.10986328 22.54345703 C18.11993825 24.76092421 18.13359859 26.97837805 18.15087891 29.19580078 C18.17506163 32.37796312 18.18646797 35.55995024 18.1953125 38.7421875 C18.20563507 39.73805878 18.21595764 40.73393005 18.22659302 41.75997925 C18.22674408 42.68078278 18.22689514 43.6015863 18.22705078 44.55029297 C18.231492 45.3630368 18.23593323 46.17578064 18.24050903 47.01315308 C18 49 18 49 16 51 C13.875 50.625 13.875 50.625 12 50 C13.32 49.34 14.64 48.68 16 48 C16.02467203 42.05517888 16.04284663 36.1103874 16.05493164 30.16552734 C16.05996831 28.14208457 16.06679789 26.11864544 16.07543945 24.09521484 C16.08753412 21.19107157 16.09323488 18.28697631 16.09765625 15.3828125 C16.10281754 14.47443634 16.10797882 13.56606018 16.11329651 12.63015747 C16.11337204 11.78943695 16.11344757 10.94871643 16.11352539 10.08251953 C16.11685631 8.96999313 16.11685631 8.96999313 16.12025452 7.83499146 C16.11269473 5.90225085 16.11269473 5.90225085 15 4 C14.34 4 13.68 4 13 4 C12.67 5.65 12.34 7.3 12 9 C10.68 9.33 9.36 9.66 8 10 C8.33 19.24 8.66 28.48 9 38 C8.01 38.495 8.01 38.495 7 39 C7 29.76 7 20.52 7 11 C5.35 10.67 3.7 10.34 2 10 C1.67 9.01 1.34 8.02 1 7 C0.01 6.34 -0.98 5.68 -2 5 C-2 4.01 -2 3.02 -2 2 C-1.34 2 -0.68 2 0 2 C0 1.34 0 0.68 0 0 Z " fill="#18CCF6" transform="translate(71,64)"/>
<path d="M0 0 C1.953125 0.640625 1.953125 0.640625 4 2 C4.609375 4.421875 4.609375 4.421875 4.75 7.75 C4.79120972 8.68162964 4.79120972 8.68162964 4.83325195 9.63208008 C4.92227124 12.08816456 4.96328383 14.54254893 5 17 C5.02046387 18.18190918 5.04092773 19.36381836 5.06201172 20.58154297 C5.11219985 23.93336356 5.15028158 27.28452224 5.17321777 30.63659668 C5.18272012 32.00111799 5.19467313 33.36562448 5.20910645 34.73010254 C5.22697773 36.67807231 5.22898055 38.62616757 5.23046875 40.57421875 C5.23457764 41.71463623 5.23868652 42.85505371 5.24291992 44.0300293 C5.00141834 46.98265925 4.68594423 48.58946714 3 51 C1.35180664 52.17260742 1.35180664 52.17260742 -0.58984375 53.10546875 C-1.64268555 53.62077148 -1.64268555 53.62077148 -2.71679688 54.14648438 C-3.81604492 54.66178711 -3.81604492 54.66178711 -4.9375 55.1875 C-5.66646484 55.54263672 -6.39542969 55.89777344 -7.14648438 56.26367188 C-10.08146924 57.681396 -12.90268267 58.96756089 -16 60 C-16 59.34 -16 58.68 -16 58 C-14.25595212 56.98965502 -12.50450439 55.99207578 -10.75 55 C-9.77546875 54.443125 -8.8009375 53.88625 -7.796875 53.3125 C-5 52 -5 52 -1 52 C-0.05870367 49.176111 0.15496672 47.31055594 0.22119141 44.37670898 C0.24436432 43.44241562 0.26753723 42.50812225 0.29141235 41.54551697 C0.3112619 40.53920731 0.33111145 39.53289764 0.3515625 38.49609375 C0.37471527 37.46186783 0.39786804 36.42764191 0.42172241 35.36207581 C0.46934317 33.1757594 0.51457949 30.98938995 0.55761719 28.80297852 C0.62480528 25.4472252 0.70253435 22.09182856 0.78125 18.73632812 C0.82615702 16.6145967 0.87044879 14.49285215 0.9140625 12.37109375 C0.93796051 11.36275986 0.96185852 10.35442596 0.98648071 9.3155365 C1.0033493 8.38439529 1.0202179 7.45325409 1.03759766 6.49389648 C1.05456696 5.67243637 1.07153625 4.85097626 1.08901978 4.00462341 C1.13302975 1.92681504 1.13302975 1.92681504 0 0 Z " fill="#20AFCB" transform="translate(88,64)"/>
<path d="M0 0 C1.98 0.99 3.96 1.98 6 3 C4.02 3.99 4.02 3.99 2 5 C2 24.8 2 44.6 2 65 C2.66 63.68 3.32 62.36 4 61 C6.625 60.25 6.625 60.25 9 60 C10.34123691 56.00772451 10.07381818 51.96477258 10 47.8125 C9.95432216 45.20201142 9.95277989 42.61186209 10 40 C10.495 39.505 10.495 39.505 11 39 C11.23653523 36.47403741 11.42173692 33.96892793 11.5625 31.4375 C11.60568359 30.72658203 11.64886719 30.01566406 11.69335938 29.28320312 C11.79971777 27.52238088 11.90038846 25.7612168 12 24 C12.33 24 12.66 24 13 24 C13 36.54 13 49.08 13 62 C9.04 63.98 9.04 63.98 5 66 C4.505 66.99 4.505 66.99 4 68 C2.68 68 1.36 68 0 68 C0 45.56 0 23.12 0 0 Z " fill="#22C4E7" transform="translate(42,43)"/>
<path d="M0 0 C5.3347157 0.5582842 9.3303841 2.40191041 14.0234375 4.81640625 C14.76961334 5.19232407 15.51578918 5.56824188 16.28457642 5.95555115 C18.65193456 7.15036788 21.01346331 8.35622494 23.375 9.5625 C24.98530417 10.37769018 26.59597764 11.19215131 28.20703125 12.00585938 C32.14234598 13.99549192 36.07247317 15.99504097 40 18 C37 19 37 19 34.765625 18.07421875 C33.93546875 17.61660156 33.1053125 17.15898438 32.25 16.6875 C29.37493753 15.10983207 26.86521906 13.96276418 23.69140625 13.0859375 C19.38955662 11.82041983 15.65584063 9.99338731 11.6875 7.9375 C10.97271484 7.57333984 10.25792969 7.20917969 9.52148438 6.83398438 C7.67847402 5.89424017 5.83898047 4.94760602 4 4 C3.34 3.67 2.68 3.34 2 3 C1.7758088 7.50360556 1.81231703 11.63102336 3 16 C6.02936977 18.63987937 9.23758474 19.71981717 13 21 C13.99 21.66 14.98 22.32 16 23 C16 23.66 16 24.32 16 25 C13.625 24.375 13.625 24.375 10 23 C8.700625 22.56880859 8.700625 22.56880859 7.375 22.12890625 C4.15041809 20.73189278 2.27818758 19.70645153 0 17 C-1.27740334 11.44831582 -0.56219643 5.60947103 0 0 Z " fill="#236776" transform="translate(40,16)"/>
<path d="M0 0 C3.12290635 0.48578543 5.99580359 0.9986012 9 2 C8.67 11.9 8.34 21.8 8 32 C4.7 33.32 1.4 34.64 -2 36 C-2.845625 36.515625 -3.69125 37.03125 -4.5625 37.5625 C-8.15204021 39.67940833 -12.03060885 40.78064455 -16 42 C-16 42.99 -16 43.98 -16 45 C-19.21451269 46.60725635 -22.43612536 46.05748185 -26 46 C-22.42755964 43.05044668 -18.51128217 41.14241583 -14.375 39.125 C-12.94264476 38.41939987 -11.51035306 37.71367075 -10.078125 37.0078125 C-9.38267578 36.6665332 -8.68722656 36.32525391 -7.97070312 35.97363281 C-4.5675325 34.29228439 -1.19453153 32.55108065 2.1796875 30.8125 C4 30 4 30 6 30 C6.17421117 25.91720499 6.28082588 21.83536319 6.375 17.75 C6.42527344 16.59113281 6.47554687 15.43226562 6.52734375 14.23828125 C6.90677214 8.4147194 6.90677214 8.4147194 4.63769531 3.34570312 C2.82852145 2.10098723 2.82852145 2.10098723 0 1 C0 0.67 0 0.34 0 0 Z " fill="#2790A9" transform="translate(69,73)"/>
<path d="M0 0 C2 0.66666667 4 1.33333333 6 2 C7.13695313 2.34417969 7.13695313 2.34417969 8.296875 2.6953125 C9.08578125 2.94023438 9.8746875 3.18515625 10.6875 3.4375 C11.43386719 3.66308594 12.18023437 3.88867188 12.94921875 4.12109375 C15.22896172 5.09812645 16.26866136 6.25126097 18 8 C19.69984012 8.95030432 21.432191 9.84403983 23.1875 10.6875 C24.08855469 11.12449219 24.98960938 11.56148437 25.91796875 12.01171875 C26.60503906 12.33785156 27.29210937 12.66398437 28 13 C27.01 13.66 26.02 14.32 25 15 C26.175625 15.0825 27.35125 15.165 28.5625 15.25 C33.15469785 15.79844431 36.14249265 17.50869317 40 20 C39.505 21.485 39.505 21.485 39 23 C39 22.34 39 21.68 39 21 C36.03 21.495 36.03 21.495 33 22 C32.34 21.01 31.68 20.02 31 19 C28 18.83333333 28 18.83333333 25 19 C23 18 23 18 22 15 C18.55835627 11.17302847 18.55835627 11.17302847 14 9 C13.67 8.34 13.34 7.68 13 7 C10.87423218 6.53348793 10.87423218 6.53348793 8.4375 6.375 C7.61121094 6.30023438 6.78492187 6.22546875 5.93359375 6.1484375 C5.29550781 6.09945312 4.65742187 6.05046875 4 6 C3.67 5.01 3.34 4.02 3 3 C1.50014391 1.33289654 1.50014391 1.33289654 0 0 Z " fill="#1ACCF5" transform="translate(69,31)"/>
<path d="M0 0 C2.97 0.495 2.97 0.495 6 1 C6 1.66 6 2.32 6 3 C4.68 2.67 3.36 2.34 2 2 C2.0628418 3.6874231 2.0628418 3.6874231 2.12695312 5.40893555 C2.27201693 9.59233456 2.36368268 13.77551298 2.43945312 17.96069336 C2.47962739 19.76999314 2.53418125 21.57903408 2.60351562 23.38745117 C2.70085601 25.99202211 2.74597932 28.59315792 2.78125 31.19921875 C2.82254028 32.00461594 2.86383057 32.81001312 2.90637207 33.63981628 C2.9082564 36.01113717 2.81607867 37.76998218 2 40 C-1.2627473 43.1266459 -4.45404599 45 -9 45 C-8 42 -8 42 -5.625 40.3125 C-3 39 -3 39 0 39 C0 26.13 0 13.26 0 0 Z " fill="#267081" transform="translate(55,66)"/>
<path d="M0 0 C4.60613783 0.62370748 8.39940738 2.50626307 12.48828125 4.59765625 C13.19147995 4.95137802 13.89467865 5.30509979 14.6191864 5.66954041 C16.85318349 6.79490078 19.08284992 7.92855543 21.3125 9.0625 C22.83110152 9.8293282 24.34997888 10.59561038 25.86914062 11.36132812 C29.58265171 13.23457649 33.29230273 15.11527236 37 17 C34 18 34 18 32.01171875 17.109375 C31.24472656 16.66078125 30.47773437 16.2121875 29.6875 15.75 C23.42961363 12.42173155 16.92967944 11.22817085 10 10 C10.33 9.01 10.66 8.02 11 7 C10.38511719 6.93941406 9.77023438 6.87882812 9.13671875 6.81640625 C7.92435547 6.69072266 7.92435547 6.69072266 6.6875 6.5625 C5.88699219 6.48128906 5.08648437 6.40007813 4.26171875 6.31640625 C2 6 2 6 -1 5 C-0.67 3.35 -0.34 1.7 0 0 Z " fill="#1A7185" transform="translate(51,46)"/>
<path d="M0 0 C0.33 0 0.66 0 1 0 C1.33 6.27 1.66 12.54 2 19 C2.99 19 3.98 19 5 19 C5.1875 21.3125 5.1875 21.3125 5 24 C3.5625 25.625 3.5625 25.625 2 27 C1.67 27.99 1.34 28.98 1 30 C-1.0435513 30.74930214 -3.09618498 31.47963469 -5.1796875 32.109375 C-9.59228515 33.50282689 -13.87022049 35.23306473 -18.1796875 36.9140625 C-20.10297977 37.65460994 -22.04482295 38.34827432 -24 39 C-24 38.34 -24 37.68 -24 37 C-20.63006421 34.57785865 -17.06428852 33.21095293 -13.1953125 31.828125 C-10.01970906 30.63021054 -6.95908787 29.20048164 -3.8828125 27.76953125 C-2 27 -2 27 0 27 C0 18.09 0 9.18 0 0 Z " fill="#20C5EA" transform="translate(77,78)"/>
<path d="M0 0 C2.94875682 4.42313523 2.54290126 8.7232881 2.75 13.9375 C2.80542969 14.93974609 2.86085938 15.94199219 2.91796875 16.97460938 C2.96050781 17.94076172 3.00304687 18.90691406 3.046875 19.90234375 C3.08651367 20.78398193 3.12615234 21.66562012 3.16699219 22.57397461 C2.98084229 25.27831898 2.51119919 26.75691281 1 29 C-0.64819336 30.17260742 -0.64819336 30.17260742 -2.58984375 31.10546875 C-3.29173828 31.44900391 -3.99363281 31.79253906 -4.71679688 32.14648438 C-5.81604492 32.66178711 -5.81604492 32.66178711 -6.9375 33.1875 C-7.66646484 33.54263672 -8.39542969 33.89777344 -9.14648438 34.26367188 C-12.08146924 35.681396 -14.90268267 36.96756089 -18 38 C-18 37.34 -18 36.68 -18 36 C-16.25595212 34.98965502 -14.50450439 33.99207578 -12.75 33 C-11.77546875 32.443125 -10.8009375 31.88625 -9.796875 31.3125 C-7 30 -7 30 -3 30 C-3 29.34 -3 28.68 -3 28 C-2.01 28 -1.02 28 0 28 C0 18.76 0 9.52 0 0 Z " fill="#1C687A" transform="translate(90,86)"/>
<path d="M0 0 C5.31200214 1.60814235 10.19514623 3.86058626 15.1875 6.25 C16.02450439 6.64823975 16.86150879 7.04647949 17.72387695 7.45678711 C23.94175889 10.43802923 29.99546138 13.60613035 36 17 C36 21.29 36 25.58 36 30 C35.67 30 35.34 30 35 30 C34.505 24.06 34.505 24.06 34 18 C32.72125 17.608125 31.4425 17.21625 30.125 16.8125 C26.4729954 15.61625282 23.20032733 14.12208303 19.8125 12.3125 C16.03439781 10.34387889 13.34200138 9.42868403 9 10 C9.66 9.01 10.32 8.02 11 7 C7.37 5.02 3.74 3.04 0 1 C0 0.67 0 0.34 0 0 Z " fill="#16505D" transform="translate(84,37)"/>
<path d="M0 0 C1.98 0.99 3.96 1.98 6 3 C4.02 3.99 4.02 3.99 2 5 C2 25.79 2 46.58 2 68 C1.34 68 0.68 68 0 68 C0 45.56 0 23.12 0 0 Z " fill="#32C9EB" transform="translate(42,43)"/>
<path d="M0 0 C0 0.66 0 1.32 0 2 C-5.82185199 5.4821006 -11.48180123 8.10463724 -18 10 C-18 10.99 -18 11.98 -18 13 C-21.21451269 14.60725635 -24.43612536 14.05748185 -28 14 C-24.36616675 10.98749575 -20.33860046 9.05654628 -16.125 7 C-15.43019531 6.65710938 -14.73539063 6.31421875 -14.01953125 5.9609375 C-12.65524114 5.28778494 -11.28971111 4.61713853 -9.92285156 3.94921875 C-8.14357365 3.07087536 -6.37959151 2.16172863 -4.6171875 1.25 C-2 0 -2 0 0 0 Z " fill="#25616E" transform="translate(71,105)"/>
<path d="M0 0 C1.32 0.33 2.64 0.66 4 1 C4.0505939 7.51445205 4.08568856 14.02885368 4.10986328 20.54345703 C4.11993825 22.76092421 4.13359859 24.97837805 4.15087891 27.19580078 C4.17506163 30.37796312 4.18646797 33.55995024 4.1953125 36.7421875 C4.20563507 37.73805878 4.21595764 38.73393005 4.22659302 39.75997925 C4.22674408 40.68078278 4.22689514 41.6015863 4.22705078 42.55029297 C4.231492 43.3630368 4.23593323 44.17578064 4.24050903 45.01315308 C4 47 4 47 2 49 C-0.125 48.625 -0.125 48.625 -2 48 C-0.68 47.34 0.64 46.68 2 46 C2.04945048 40.09180929 2.08574364 34.18373916 2.10986328 28.27539062 C2.1199187 26.26560365 2.13356485 24.2558313 2.15087891 22.24609375 C2.17514724 19.35673412 2.18648771 16.46756798 2.1953125 13.578125 C2.20563507 12.68007141 2.21595764 11.78201782 2.22659302 10.85675049 C2.22674408 10.01618103 2.22689514 9.17561157 2.22705078 8.30957031 C2.231492 7.57232727 2.23593323 6.83508423 2.24050903 6.07550049 C1.96463374 3.69480274 1.17901432 2.06983569 0 0 Z " fill="#33D5F9" transform="translate(85,66)"/>
<path d="M0 0 C2 0.66666667 4 1.33333333 6 2 C7.13695313 2.34417969 7.13695313 2.34417969 8.296875 2.6953125 C9.08578125 2.94023438 9.8746875 3.18515625 10.6875 3.4375 C11.43386719 3.66308594 12.18023437 3.88867188 12.94921875 4.12109375 C15.22896172 5.09812645 16.26866136 6.25126097 18 8 C19.69984012 8.95030432 21.432191 9.84403983 23.1875 10.6875 C24.08855469 11.12449219 24.98960938 11.56148437 25.91796875 12.01171875 C26.60503906 12.33785156 27.29210937 12.66398437 28 13 C25.31485266 14.03274898 24.2078412 14.07566569 21.45703125 13.07421875 C20.58433594 12.61660156 19.71164063 12.15898438 18.8125 11.6875 C17.93207031 11.23761719 17.05164063 10.78773437 16.14453125 10.32421875 C14 9 14 9 13 7 C10.87423218 6.53348793 10.87423218 6.53348793 8.4375 6.375 C7.61121094 6.30023438 6.78492187 6.22546875 5.93359375 6.1484375 C5.29550781 6.09945312 4.65742187 6.05046875 4 6 C3.67 5.01 3.34 4.02 3 3 C1.50014391 1.33289654 1.50014391 1.33289654 0 0 Z " fill="#26A2B9" transform="translate(69,31)"/>
<path d="M0 0 C0.66 0.66 1.32 1.32 2 2 C1.67 2.66 1.34 3.32 1 4 C3.97 4.99 6.94 5.98 10 7 C9.67 7.66 9.34 8.32 9 9 C4.12335991 9.34833144 1.22949995 8.41685712 -3 6 C-3 5.01 -3 4.02 -3 3 C-3.99 2.67 -4.98 2.34 -6 2 C-4.02 1.34 -2.04 0.68 0 0 Z " fill="#21B4D4" transform="translate(64,64)"/>
<path d="M0 0 C1.77155654 0.11429397 3.54226229 0.24183037 5.3125 0.375 C6.79169922 0.47941406 6.79169922 0.47941406 8.30078125 0.5859375 C11 1 11 1 14 3 C13.67 5.64 13.34 8.28 13 11 C12.01 11 11.02 11 10 11 C10.33 9.68 10.66 8.36 11 7 C10.34 6.67 9.68 6.34 9 6 C9.33 5.34 9.66 4.68 10 4 C9.46375 4.226875 8.9275 4.45375 8.375 4.6875 C4.93918099 5.13958145 2.94233306 3.67178015 0 2 C0 1.34 0 0.68 0 0 Z " fill="#0DC7F3" transform="translate(67,37)"/>
<path d="M0 0 C0.33 0 0.66 0 1 0 C1 12.54 1 25.08 1 38 C2.98 38 4.96 38 7 38 C4 40 4 40 0 41 C0 27.47 0 13.94 0 0 Z " fill="#34B8D1" transform="translate(105,64)"/>
<path d="M0 0 C0.33 0.99 0.66 1.98 1 3 C0.34 3 -0.32 3 -1 3 C-1 3.99 -1 4.98 -1 6 C-0.01 6 0.98 6 2 6 C1.625 7.9375 1.625 7.9375 1 10 C0.01 10.495 0.01 10.495 -1 11 C-1.66 10.67 -2.32 10.34 -3 10 C-3.33 10.66 -3.66 11.32 -4 12 C-5.20272819 9.59454362 -5.10071472 8.05003047 -5.0625 5.375 C-5.05347656 4.55773437 -5.04445312 3.74046875 -5.03515625 2.8984375 C-5.02355469 2.27195312 -5.01195312 1.64546875 -5 1 C-4.34 1.66 -3.68 2.32 -3 3 C-2.01 2.01 -1.02 1.02 0 0 Z " fill="#1CC9F7" transform="translate(48,122)"/>
<path d="M0 0 C0.66 0 1.32 0 2 0 C1.67 0.99 1.34 1.98 1 3 C0.92970879 5.57265818 0.90629168 8.11641431 0.9375 10.6875 C0.94201172 11.38939453 0.94652344 12.09128906 0.95117188 12.81445312 C0.96293073 14.54300538 0.98086546 16.27151365 1 18 C0.01 18.33 -0.98 18.66 -2 19 C-2 13.39 -2 7.78 -2 2 C-1.34 2 -0.68 2 0 2 C0 1.34 0 0.68 0 0 Z " fill="#33B8D0" transform="translate(43,119)"/>
<path d="M0 0 C5.39291975 1.56110835 12.9316991 3.9316991 17 8 C17.04080783 9.99958364 17.04254356 12.00045254 17 14 C16.67 14 16.34 14 16 14 C16 12.35 16 10.7 16 9 C11.08417923 7.48046291 11.08417923 7.48046291 6 7 C1.43478261 2.86956522 1.43478261 2.86956522 0 0 Z " fill="#23AED1" transform="translate(73,58)"/>
<path d="M0 0 C1.9453125 0.5390625 1.9453125 0.5390625 4 2 C4.52833169 4.59307622 4.78598828 6.76398948 4.875 9.375 C4.92140625 10.04789063 4.9678125 10.72078125 5.015625 11.4140625 C5.20700175 15.15326976 5.09227067 17.83726526 3 21 C1.55487991 16.66463974 1.60977805 12.24893783 1.39453125 7.71679688 C1.25968513 3.72857028 1.25968513 3.72857028 0 0 Z " fill="#136C7C" transform="translate(88,64)"/>
<path d="M0 0 C0.99 0.66 1.98 1.32 3 2 C2.92910808 5.07413146 2.73856743 8.00853625 2 11 C-0.63979165 13.22298244 -2.74276366 13.91425455 -6 15 C-6 14.34 -6 13.68 -6 13 C-5.34 13 -4.68 13 -4 13 C-4 12.34 -4 11.68 -4 11 C-2.68 11 -1.36 11 0 11 C0 7.37 0 3.74 0 0 Z " fill="#217080" transform="translate(118,88)"/>
<path d="M0 0 C-0.33 2.97 -0.66 5.94 -1 9 C-2.65 9 -4.3 9 -6 9 C-6.33 8.34 -6.66 7.68 -7 7 C-5.35 7 -3.7 7 -2 7 C-2.33 5.35 -2.66 3.7 -3 2 C-4.98 2.33 -6.96 2.66 -9 3 C-7 0 -7 0 -4.5 -0.75 C-2 -1 -2 -1 0 0 Z " fill="#0CC4EE" transform="translate(62,117)"/>
<path d="M0 0 C1.58560393 0.25720674 3.16845924 0.53138799 4.75 0.8125 C5.63171875 0.96332031 6.5134375 1.11414062 7.421875 1.26953125 C10.22215024 2.06294257 11.87345147 3.02747718 14 5 C14 5.66 14 6.32 14 7 C15.32 7.33 16.64 7.66 18 8 C17.01 8.495 17.01 8.495 16 9 C14.30419922 8.37915039 14.30419922 8.37915039 12.3046875 7.34765625 C11.58925781 6.98349609 10.87382813 6.61933594 10.13671875 6.24414062 C9.39035156 5.85419922 8.64398438 5.46425781 7.875 5.0625 C6.74384766 4.48338867 6.74384766 4.48338867 5.58984375 3.89257812 C3.72290903 2.93547868 1.86097372 1.96863894 0 1 C0 0.67 0 0.34 0 0 Z " fill="#2A88A0" transform="translate(67,46)"/>
<path d="M0 0 C5.94649079 0.37165567 10.37830412 2.14658603 15 6 C15 6.66 15 7.32 15 8 C9.52067211 6.45454854 4.88570819 3.84456788 0 1 C0 0.67 0 0.34 0 0 Z " fill="#26869C" transform="translate(41,33)"/>
<path d="M0 0 C5.37305699 -0.35233161 5.37305699 -0.35233161 8 0 C10 2 10 2 11 4 C9.02 4.33 7.04 4.66 5 5 C4.34 4.01 3.68 3.02 3 2 C2.01 1.34 1.02 0.68 0 0 Z " fill="#22CCF0" transform="translate(98,59)"/>
<path d="M0 0 C2.97 0.495 2.97 0.495 6 1 C6 1.66 6 2.32 6 3 C8.97 3.495 8.97 3.495 12 4 C12 4.66 12 5.32 12 6 C13.32 6.33 14.64 6.66 16 7 C15.01 7.495 15.01 7.495 14 8 C11.55667274 6.92481882 9.23245477 5.80191434 6.875 4.5625 C6.21628906 4.22412109 5.55757813 3.88574219 4.87890625 3.53710938 C3.24893453 2.69850074 1.62398091 1.85015189 0 1 C0 0.67 0 0.34 0 0 Z " fill="#258092" transform="translate(85,55)"/>
<path d="M0 0 C1.98 0 3.96 0 6 0 C3.07096942 2.33364352 0.11431797 4.04960836 -3.25 5.6875 C-4.58804688 6.34298828 -4.58804688 6.34298828 -5.953125 7.01171875 C-6.96632812 7.50091797 -6.96632812 7.50091797 -8 8 C-8 6 -8 6 -6.75 4.4375 C-4.81123038 2.84493924 -3.40403215 2.56094083 -1 2 C-0.67 1.34 -0.34 0.68 0 0 Z " fill="#29778A" transform="translate(57,128)"/>
<path d="M0 0 C4.875 0.875 4.875 0.875 6 2 C6.04063832 3.66617115 6.042721 5.33388095 6 7 C3.5625 6.3125 3.5625 6.3125 1 5 C0.1875 2.375 0.1875 2.375 0 0 Z " fill="#21CFF7" transform="translate(111,54)"/>
<path d="M0 0 C0.66 0 1.32 0 2 0 C2 0.99 2 1.98 2 3 C-0.10384698 3.81332743 -2.20808857 4.62563417 -4.3125 5.4375 C-6.07013672 6.11619141 -6.07013672 6.11619141 -7.86328125 6.80859375 C-9.89382815 7.57984755 -11.93937926 8.31312642 -14 9 C-14 8.34 -14 7.68 -14 7 C-9.99808597 4.12362429 -5.58715682 2.6819575 -1 1 C-0.67 0.67 -0.34 0.34 0 0 Z " fill="#22BBDA" transform="translate(67,108)"/>
<path d="M0 0 C3.66881155 0.70554068 6.70450534 2.27735506 10 4 C9.67 4.99 9.34 5.98 9 7 C9 6.34 9 5.68 9 5 C7.02 5.33 5.04 5.66 3 6 C0 2.25 0 2.25 0 0 Z " fill="#19C3EA" transform="translate(99,47)"/>
<path d="M0 0 C0.66 0.33 1.32 0.66 2 1 C1.67 1.99 1.34 2.98 1 4 C0.34 4 -0.32 4 -1 4 C-1 4.66 -1 5.32 -1 6 C-2.65 6 -4.3 6 -6 6 C-5.67 4.68 -5.34 3.36 -5 2 C-4.360625 1.855625 -3.72125 1.71125 -3.0625 1.5625 C-1.02454854 1.18992819 -1.02454854 1.18992819 0 0 Z " fill="#24B9DA" transform="translate(50,130)"/>
<path d="M0 0 C2.97 0.495 2.97 0.495 6 1 C6.33 2.32 6.66 3.64 7 5 C5.1875 5.625 5.1875 5.625 3 6 C2.01 5.34 1.02 4.68 0 4 C0 2.68 0 1.36 0 0 Z " fill="#19BFE5" transform="translate(107,96)"/>
<path d="M0 0 C3.72433382 1.2125738 7.37802806 2.50859979 11 4 C10.67 4.66 10.34 5.32 10 6 C8.02 6 6.04 6 4 6 C3.67 5.01 3.34 4.02 3 3 C1.50014391 1.33289654 1.50014391 1.33289654 0 0 Z " fill="#29B5D5" transform="translate(69,31)"/>
<path d="M0 0 C1.32 1.32 2.64 2.64 4 4 C3.34 4.66 2.68 5.32 2 6 C-0.625 5.625 -0.625 5.625 -3 5 C-1.125 1.125 -1.125 1.125 0 0 Z " fill="#09C4F3" transform="translate(81,102)"/>
<path d="M0 0 C0 0.66 0 1.32 0 2 C-3.21451269 3.60725635 -6.43612536 3.05748185 -10 3 C-6.68152292 -0.06320961 -4.44849969 -0.3033068 0 0 Z " fill="#2788A1" transform="translate(53,116)"/>
<path d="M0 0 C0.66 0 1.32 0 2 0 C1.67 1.98 1.34 3.96 1 6 C-0.98 6 -2.96 6 -5 6 C-3.625 4 -3.625 4 -2 2 C-1.34 2 -0.68 2 0 2 C0 1.34 0 0.68 0 0 Z " fill="#0CC4F0" transform="translate(51,97)"/>
<path d="M0 0 C0.99 0 1.98 0 3 0 C2.979375 0.763125 2.95875 1.52625 2.9375 2.3125 C2.87057159 5.10185786 2.87057159 5.10185786 4 8 C2.68 7.67 1.36 7.34 0 7 C-0.93423645 3.98968256 -1.04449911 3.13349732 0 0 Z " fill="#1DCFF8" transform="translate(73,67)"/>
<path d="M0 0 C2.31 0.66 4.62 1.32 7 2 C7 2.66 7 3.32 7 4 C3.95613276 4.08226668 1.92824652 3.97608217 -1 3 C-0.67 2.01 -0.34 1.02 0 0 Z " fill="#0CC4F2" transform="translate(45,26)"/>
<path d="M0 0 C-6.625 4 -6.625 4 -10 4 C-9.67 3.01 -9.34 2.02 -9 1 C-3.79245283 -1.26415094 -3.79245283 -1.26415094 0 0 Z " fill="#1D748B" transform="translate(56,107)"/>
<path d="M0 0 C4.35522853 0.50642192 7.44239635 1.38411497 11 4 C11 4.66 11 5.32 11 6 C7.2089881 4.55049545 3.6125362 2.84827434 0 1 C0 0.67 0 0.34 0 0 Z " fill="#2ACAED" transform="translate(45,33)"/>
<path d="M0 0 C5.445 1.485 5.445 1.485 11 3 C11 3.33 11 3.66 11 4 C7.7 4 4.4 4 1 4 C0.67 2.68 0.34 1.36 0 0 Z " fill="#1FBCE3" transform="translate(58,27)"/>
<path d="M0 0 C0 0.99 0 1.98 0 3 C-1.98 3.33 -3.96 3.66 -6 4 C-6 3.01 -6 2.02 -6 1 C-3 0 -3 0 0 0 Z " fill="#26CBEF" transform="translate(75,106)"/>
<path d="M0 0 C1.37562854 1.28965176 2.70766393 2.62689293 4 4 C4 4.66 4 5.32 4 6 C2.35 5.67 0.7 5.34 -1 5 C-0.67 3.35 -0.34 1.7 0 0 Z " fill="#28A3BB" transform="translate(57,37)"/>
<path d="M0 0 C0.33 0 0.66 0 1 0 C1.28571429 7.42857143 1.28571429 7.42857143 -1 11 C-1.33 11 -1.66 11 -2 11 C-2 9.02 -2 7.04 -2 5 C-1.34 5 -0.68 5 0 5 C0 3.35 0 1.7 0 0 Z " fill="#1B424F" transform="translate(92,104)"/>
</svg>
